<svg xmlns="http://www.w3.org/2000/svg" version="1.1" xmlns:xlink="http://www.w3.org/1999/xlink" xmlns:svgjs="http://svgjs.dev/svgjs" width="128" height="128" viewBox="0 0 128 128"><g transform="matrix(0.8046875,0,0,0.8046875,12.440060836110987,3.05014260979587)"><svg viewBox="0 0 131 155" data-background-color="#ffffff" preserveAspectRatio="xMidYMid meet" height="151" width="128" xmlns="http://www.w3.org/2000/svg" xmlns:xlink="http://www.w3.org/1999/xlink"><g id="tight-bounds" transform="matrix(1,0,0,1,0.07626572344248927,0.24996274812897923)"><svg viewBox="0 0 130.84755976644263 154.5" height="154.5" width="130.84755976644263"><g><svg viewBox="0 0 130.84755976644263 154.5" height="154.5" width="130.84755976644263"><g><svg viewBox="0 0 130.84755976644263 154.5" height="154.5" width="130.84755976644263"><g id="textblocktransform"><svg viewBox="0 0 130.84755976644263 154.5" height="154.5" width="130.84755976644263" id="textblock"><g><svg viewBox="0 0 130.84755976644263 154.5" height="154.5" width="130.84755976644263"><g transform="matrix(1,0,0,1,0,0)"><svg width="130.84755976644263" viewBox="0.860625 -23.903845207014992 23.339375 27.564470207014992" height="154.5" data-palette-color="#FFA34D"><path d="M1.75 2.65L1.75 2.65Q0.95 0.95 0.88-0.8 0.8-2.55 1.05-4.35L1.05-4.35Q1.1-4.95 1.25-6.08 1.4-7.2 1.6-8.58 1.8-9.95 2.05-11.5 2.3-13.05 2.5-14.43 2.7-15.8 2.88-16.85 3.05-17.9 3.15-18.45L3.15-18.45Q3.45-20.15 3.85-21.35 4.25-22.55 4.93-23.2 5.6-23.85 6.68-23.9 7.75-23.95 9.45-23.35L9.45-23.35Q9.65-23.3 9.9-23.03 10.15-22.75 10.15-22.7L10.15-22.7Q10.25-22.15 10.48-21.05 10.7-19.95 10.98-18.55 11.25-17.15 11.58-15.65 11.9-14.15 12.15-12.75 12.4-11.35 12.63-10.25 12.85-9.15 13-8.6L13-8.6Q13.6-5.75 14.5-4.63 15.4-3.5 16.4-3.45 17.4-3.4 18.5-4.13 19.6-4.85 20.63-5.65 21.65-6.45 22.6-7 23.55-7.55 24.2-7.2L24.2-7.2Q24.2-6.45 23.85-5.73 23.5-5 22.98-4.38 22.45-3.75 21.85-3.2 21.25-2.65 20.75-2.3L20.75-2.3Q18.45-0.8 16.95-0.73 15.45-0.65 14.38-1.4 13.3-2.15 12.65-3.5 12-4.85 11.53-6.23 11.05-7.6 10.58-8.68 10.1-9.75 9.45-10.05L9.45-10.05Q9.3-9.5 8.93-8.22 8.55-6.95 8.1-5.48 7.65-4 7.25-2.7 6.85-1.4 6.65-0.9L6.65-0.9Q6.6-0.7 6.35-0.13 6.1 0.45 5.68 1.13 5.25 1.8 4.75 2.43 4.25 3.05 3.73 3.4 3.2 3.75 2.68 3.63 2.15 3.5 1.75 2.65ZM3.85-9.3L3.85-9.3Q3.8-8.8 3.78-7.5 3.75-6.2 3.75-4.78 3.75-3.35 3.78-2.02 3.8-0.7 3.85-0.2L3.85-0.2Q5.25-2.35 6.38-5.2 7.5-8.05 8.1-11.13 8.7-14.2 8.58-17.2 8.45-20.2 7.4-22.7L7.4-22.7Q6.65-21.4 6.05-19.5 5.45-17.6 5.03-15.65 4.6-13.7 4.28-11.95 3.95-10.2 3.85-9.3Z" opacity="1" transform="matrix(1,0,0,1,0,0)" fill="#FFA34D" class="wordmark-text-0" data-fill-palette-color="primary" id="text-0"></path></svg></g></svg></g></svg></g></svg></g><g></g></svg></g><defs></defs></svg><rect width="130.84755976644263" height="154.5" fill="none" stroke="none" visibility="hidden"></rect></g></svg></g></svg>