<svg viewBox="0 0 1080 1080" fill="none" xmlns="http://www.w3.org/2000/svg">      <defs>  <filter id="filter" x="-20%" y="-20%" width="140%" height="140%" filterUnits="objectBoundingBox" primitiveUnits="userSpaceOnUse" color-interpolation-filters="linearRGB">    <feMorphology operator="dilate" radius="20 20" in="SourceAlpha" result="morphology"/>    <feFlood flood-color="#ffffff" flood-opacity="1" result="flood"/>    <feComposite in="flood" in2="morphology" operator="in" result="composite"/>    <feMerge result="merge">          <feMergeNode in="composite" result="mergeNode"/>      <feMergeNode in="SourceGraphic" result="mergeNode1"/>      </feMerge>  </filter></defs>      <g id="notion-avatar" filter="url(#filter)">        <g id="notion-avatar-face" fill="#ffffff">      <!--?xml version="1.0" encoding="UTF-8"?-->    <title>Face/ 6</title>    <g id="Face/-6" stroke="none" stroke-width="1" fill-rule="evenodd" stroke-linecap="round" stroke-linejoin="round">        <path d="M532,379 C664.54834,379 772,486.45166 772,619 C772,751.54834 764.54834,899 532,899 C402.610491,899 332.317998,816.086314 305.249034,718.717925 C264.225797,715.291578 232,680.909158 232,639 C232,599.134956 261.158843,566.080325 299.312086,560.00055 C325.599297,455.979213 419.809919,379 532,379 Z M295.858895,624.545187 L304.141105,655.454813" id="Path" stroke="#000000" stroke-width="24"/>    </g>    </g><g id="notion-avatar-nose">      <g id="Nose/ 13"><path id="Path" fill-rule="evenodd" clip-rule="evenodd" d="M644 560C644 560 665.892 613.522 673 623C676 627 693.906 641.256 692.774 653.58C690.065 683.076 644 684.359 644 684.359C644 684.359 700 689.489 700 653.58C700 637.222 687 632 674 620C666.959 613.5 644 560 644 560Z" fill="black" stroke="black" stroke-width="6" stroke-linecap="round" stroke-linejoin="round"/></g>    </g><g id="notion-avatar-mouth">      <g id="Mouth/ 16"><g id="Group"><path id="Path" fill-rule="evenodd" clip-rule="evenodd" d="M524 757.432C524 757.432 561.725 758.244 581 755.644C600.275 753.044 621.352 744.187 630 743.134C638.648 742.08 646 747.602 648 747.602C650 747.602 655 742.24 665 743.134C675 744.027 695 757.432 695 757.432C695 757.432 672 764.58 636 764.58C569 767.261 524 757.432 524 757.432Z" stroke="black" stroke-width="8" stroke-linecap="round" stroke-linejoin="round"/><path id="Path_2" fill-rule="evenodd" clip-rule="evenodd" d="M682 761.562C682 761.562 673.163 776.225 664.692 780.862C656.22 785.5 646.288 782.319 639 782.319C631.712 782.319 617.863 787.504 598.192 782.241C578.52 776.979 549 760.872 549 760.872C549 760.872 589.994 764.727 617.322 765.008C644.65 765.29 682 761.562 682 761.562Z" stroke="black" stroke-width="8" stroke-linecap="round" stroke-linejoin="round"/></g></g>    </g><g id="notion-avatar-eyes">      <!--?xml version="1.0" encoding="UTF-8"?-->    <title>Eyes/ 4</title>    <g id="Eyes/-4" stroke="none" stroke-width="1" fill="none" fill-rule="evenodd">        <path d="M570,516 C583.254834,516 594,526.745166 594,540 C594,553.254834 583.254834,564 570,564 C556.745166,564 546,553.254834 546,540 C546,526.745166 556.745166,516 570,516 Z M708,516 C721.254834,516 732,526.745166 732,540 C732,553.254834 721.254834,564 708,564 C694.745166,564 684,553.254834 684,540 C684,526.745166 694.745166,516 708,516 Z M562,526 C558.686292,526 556,528.686292 556,532 C556,535.313708 558.686292,538 562,538 C565.313708,538 568,535.313708 568,532 C568,528.686292 565.313708,526 562,526 Z M700,526 C696.686292,526 694,528.686292 694,532 C694,535.313708 696.686292,538 700,538 C703.313708,538 706,535.313708 706,532 C706,528.686292 703.313708,526 700,526 Z" id="Combined-Shape" fill="#000000"/>    </g>    </g><g id="notion-avatar-eyebrows">      <g id="Eyebrows/ 12"><g id="Group"><path id="Path" fill-rule="evenodd" clip-rule="evenodd" d="M681 505.316C681 505.316 698.641 492.863 706.392 490.578C714.144 488.294 738 489.316 738 489.316L755 494.913C755 494.913 730.25 494.897 716.549 497.08C702.848 499.263 681 505.316 681 505.316Z" fill="black" stroke="black" stroke-width="8" stroke-linecap="round" stroke-linejoin="round"/><path id="Path_2" fill-rule="evenodd" clip-rule="evenodd" d="M597 505.316C597 505.316 579.359 492.863 571.608 490.578C563.856 488.294 540 489.316 540 489.316L523 494.913C523 494.913 547.75 494.897 561.451 497.08C575.152 499.263 597 505.316 597 505.316Z" fill="black" stroke="black" stroke-width="8" stroke-linecap="round" stroke-linejoin="round"/></g></g>    </g><g id="notion-avatar-glasses">      <!--?xml version="1.0" encoding="UTF-8"?-->    <title>Glasses/ 2</title>    <g id="Glasses/-2" stroke="none" stroke-width="1" fill="none" fill-rule="evenodd" stroke-linecap="round" stroke-linejoin="round">        <path d="M574.189838,502.353993 C586.612079,503.247679 601.018598,506.362134 617.409394,511.697357 C622.107339,513.226543 629.521032,514.112461 639.650474,514.355109 L640.336909,514.337568 C650.115498,514.071859 657.30038,513.191789 661.891553,511.697357 C678.282349,506.362134 692.688868,503.247679 705.11111,502.353993 C722.696433,501.088862 751.030506,503.214809 790.113329,508.731836 L791.300947,508.900056 L791.300947,529.629258 C786.297933,531.828279 783.752241,534.010301 783.663873,536.175322 C781.481852,589.634841 763.639862,606 723.65829,606 C685.15235,606 666.860184,585.095985 650.56058,541.630375 C648.424017,535.932875 644.892754,533.024776 639.966791,532.906078 L639.650474,532.90229 C634.559091,532.90229 630.922389,535.811651 628.740368,541.630375 C612.440763,585.095985 594.148598,606 555.642657,606 C515.661085,606 497.819095,589.634841 495.637074,536.175322 C495.548712,534.010446 493.003357,531.828573 488.00101,529.629702 L488,530 L289,550 L293,541 L487.999,509 L488,508.900056 C527.696939,503.258104 556.426885,501.076083 574.189838,502.353993 Z M564.611618,508.971486 C532.97231,506.789465 518.789172,513.335528 512.243109,520.972603 C505.697045,528.609677 493.695928,595.161324 551.51949,598.434355 C609.343052,601.707387 614.798105,534.06473 611.525073,526.427656 C608.252042,518.790581 596.250925,511.153507 564.611618,508.971486 Z M714.580942,508.971486 C682.941634,511.153507 670.940518,518.790581 667.667486,526.427656 C664.394454,534.06473 669.849507,601.707387 727.673069,598.434355 C785.496631,595.161324 773.495514,528.609677 766.949451,520.972603 C760.403387,513.335528 746.220249,506.789465 714.580942,508.971486 Z" id="Combined-Shape" stroke="#000000" stroke-width="4" fill="#000000"/>    </g>    </g><g id="notion-avatar-hair">      <!--?xml version="1.0" encoding="UTF-8"?-->    <title>Hairstyle/ 6</title>    <g id="Hairstyle/-6" stroke="none" stroke-width="1" fill="none" fill-rule="evenodd" stroke-linecap="round" stroke-linejoin="round">        <path d="M279,719 L312,727 L361,805 C345.104968,795.793015 330.104968,783.793015 316,769 C301.895032,754.206985 289.561699,737.540318 279,719 Z M343,303 C367,222.333333 442.666667,202.333333 570,243 C761,304 782,471 782,496 C782,512.666667 778.333333,533.666667 771,559 L769.377742,556.788495 C742.968282,520.931086 720.842368,498.001587 703,488 C652.173973,459.509334 588.817434,464 549,464 C509.182566,464 428.104379,430.95793 412,428 C409.688334,427.575411 401.590927,431.429106 429,448 L430.116018,448.665115 C436.887544,452.645909 447.182205,457.757538 461,464 C447.596463,464.038164 432.312171,461.806007 415.147123,457.303529 L412.503541,456.598811 C395.711977,452.076418 384.642719,448.384272 379.295767,445.522372 L380.06813,448.7074 C388.26572,482.685415 392.364515,505.362636 392.364515,516.739062 C392.364515,528.232771 383.924355,572.72458 367.044035,650.214489 L366,655 C350.666667,619.666667 338.333333,596 329,584 C315,566 300.202254,555.429256 288,559 L287.245493,559.229979 C278.745889,561.917334 258.53666,571.367129 244,589 C238.749387,595.368958 233.08272,607.368958 227,625 L226.065502,623.594497 C212.50066,603.100798 205.145493,587.902633 204,578 C200.118123,544.441696 214.597053,517.355586 214,510 C210.524124,467.177849 188,403 244,358 L246.2348,356.214 C282.6516,327.271333 314.906667,309.533333 343,303 Z" id="Shape" stroke="#000000" stroke-width="12" fill="#000000"/>    </g>    </g><g id="notion-avatar-accessories">      <!--?xml version="1.0" encoding="UTF-8"?-->    <title>Accessories/ 0</title>    <g id="Accessories/-0" stroke="none" stroke-width="1" fill="none" fill-rule="evenodd"/>    </g><g id="notion-avatar-details">      <!--?xml version="1.0" encoding="UTF-8"?-->    <title>Details/ 0</title>    <g id="Details/-0" stroke="none" stroke-width="1" fill="none" fill-rule="evenodd"/>    </g><g id="notion-avatar-beard">      <!--?xml version="1.0" encoding="UTF-8"?-->    <title>Beard/ 2</title>    <g id="Beard/-2" stroke="none" stroke-width="1" fill="none" fill-rule="evenodd" stroke-linecap="round" stroke-linejoin="round">        <g id="Group" transform="translate(371.133645, 672.093579)" stroke="#000000" stroke-width="16">            <line x1="266.273341" y1="38.9064208" x2="266.273341" y2="62.9064208" id="Path" transform="translate(266.273341, 50.906421) rotate(5.000000) translate(-266.273341, -50.906421) "/>            <line x1="292.365079" y1="38.9064208" x2="292.365079" y2="62.9064208" id="Path" transform="translate(292.365079, 50.906421) scale(-1, 1) rotate(5.000000) translate(-292.365079, -50.906421) "/>            <line x1="239.557395" y1="40.9064208" x2="239.557395" y2="64.9064208" id="Path" transform="translate(239.557395, 52.906421) rotate(8.000000) translate(-239.557395, -52.906421) "/>            <line x1="319.081025" y1="41.9064208" x2="319.081025" y2="65.9064208" id="Path" transform="translate(319.081025, 53.906421) scale(-1, 1) rotate(8.000000) translate(-319.081025, -53.906421) "/>            <line x1="211.425951" y1="45.8073404" x2="210.217288" y2="63.4360151" id="Path" transform="translate(210.925951, 54.807340) rotate(16.000000) translate(-210.925951, -54.807340) "/>            <line x1="347.507476" y1="50.9064208" x2="347.507476" y2="70.9064208" id="Path" transform="translate(347.507476, 60.906421) scale(-1, 1) rotate(16.000000) translate(-347.507476, -60.906421) "/>            <line x1="181.844559" y1="48.1498621" x2="181.525756" y2="65.6629795" id="Path" transform="translate(182.025756, 56.662979) rotate(19.000000) translate(-182.025756, -56.662979) "/>            <line x1="151.490065" y1="56.7191175" x2="153.222458" y2="74.354276" id="Path" transform="translate(152.696414, 65.497522) rotate(22.000000) translate(-152.696414, -65.497522) "/>            <line x1="122.837706" y1="71.6204191" x2="126.780408" y2="96.0484158" id="Path" transform="translate(124.837706, 84.120419) rotate(22.000000) translate(-124.837706, -84.120419) "/>            <line x1="9.58948596" y1="-1.01442282" x2="5.14322409" y2="11.2015813" id="Path" transform="translate(7.500000, 5.000000) rotate(70.000000) translate(-7.500000, -5.000000) "/>            <line x1="13.9927886" y1="28.4091214" x2="12.0235844" y2="42.5908786" id="Path" transform="translate(13.004093, 35.351932) rotate(70.000000) translate(-13.004093, -35.351932) "/>            <line x1="20.9941812" y1="53.2957181" x2="18.8556925" y2="72.0949718" id="Path" transform="translate(19.994181, 62.795718) rotate(70.000000) translate(-19.994181, -62.795718) "/>            <line x1="28.866355" y1="80.9064208" x2="28.866355" y2="100.906421" id="Path" transform="translate(28.866355, 90.906421) rotate(70.000000) translate(-28.866355, -90.906421) "/>            <line x1="46.1997712" y1="108.632477" x2="50.981151" y2="128.886179" id="Path" transform="translate(48.481151, 118.386179) rotate(70.000000) translate(-48.481151, -118.386179) "/>            <line x1="66.8244792" y1="131.559139" x2="74.1692845" y2="150.617497" id="Path" transform="translate(70.669285, 140.617497) rotate(70.000000) translate(-70.669285, -140.617497) "/>            <line x1="86.8992094" y1="152.384454" x2="97.8335007" y2="167.428388" id="Path" transform="translate(92.333501, 159.428388) rotate(70.000000) translate(-92.333501, -159.428388) "/>            <line x1="114.53737" y1="164.254546" x2="129.592672" y2="175.956143" id="Path" transform="translate(122.092672, 169.956143) rotate(70.000000) translate(-122.092672, -169.956143) "/>            <line x1="146.238529" y1="168.970245" x2="160.954313" y2="178.099239" id="Path" transform="translate(153.454313, 173.099239) rotate(70.000000) translate(-153.454313, -173.099239) "/>            <line x1="174.944456" y1="168.32313" x2="191.788254" y2="177.489712" id="Path" transform="translate(183.288254, 172.489712) rotate(70.000000) translate(-183.288254, -172.489712) "/>            <line x1="204.9014" y1="169.192791" x2="223.711207" y2="173.460538" id="Path" transform="translate(214.271259, 171.040294) rotate(70.000000) translate(-214.271259, -171.040294) "/>            <line x1="234.714972" y1="164.529202" x2="250.464074" y2="165.163612" id="Path" transform="translate(242.733894, 164.396280) rotate(70.000000) translate(-242.733894, -164.396280) "/>            <line x1="260.929106" y1="154.234055" x2="276.136923" y2="153.384181" id="Path" transform="translate(268.630203, 154.095799) rotate(70.000000) translate(-268.630203, -154.095799) "/>            <line x1="286.892662" y1="141.146548" x2="301.056215" y2="139.152378" id="Path" transform="translate(294.049495, 140.363996) rotate(70.000000) translate(-294.049495, -140.363996) "/>        </g>    </g>    </g>      </g>      </svg>